<svg xmlns="http://www.w3.org/2000/svg" width="1024" height="1024"><path d="M102.9 1.1C65.9 6.5 34 28.6 14.8 62c-4.2 7.3-9.4 20.8-11.9 31l-2.4 9.5v819l2.4 9.5c5.5 22.1 15.1 39.8 30.5 55.8 16.8 17.5 35.8 28.4 59.6 34.3l9.5 2.4H511l417-1.8c23.1-5 41.9-14.9 58.6-30.9 17.7-17 28.6-35.9 34.5-59.8l2.4-9.5V513l-1.8-417c-5-23-14.9-41.9-30.8-58.4C974.1 20 956.3 9.5 932.5 3.2l-10-2.7-407-.1C291.7.3 106 .6 102.9 1.1zm439.1 178c50.7 4.7 100.5 21.2 143.5 47.8 22.4 13.8 41.1 28.6 61.1 48.6 53.4 53.1 85.9 119.4 96.1 196 2.4 18.2 2.4 62.8 0 81-10.2 76.6-42.7 142.9-96.1 196-20 20-38.7 34.8-61.1 48.6-43 26.6-92.8 43.1-143.5 47.8-14.8 1.4-45.2 1.4-60 0-76.5-7.1-147-39.6-201.9-93.3-26.1-25.6-48.1-55.2-63.8-86.1-17.5-34.5-19.8-43.9-14.1-59.2 8.6-23.2 38.4-31.8 58.8-16.8 6.8 5 9.5 8.9 15.6 23.3C313 697 386.9 753.9 476.5 766.6c15.9 2.3 52.9 2.6 67.5.6 64.3-9 122.1-40.5 162.7-88.7 18.1-21.5 36.5-53.2 45.7-78.5 5.2-14.6 10.1-34.2 12.7-51.1 3.1-20.5 3.1-53.3 0-73.8-4.4-28.7-11.6-51.7-24.3-77.3-25.5-51.4-65.9-91.7-117.3-116.9-32.9-16.1-64.1-23.9-104-25.8-19.6-1-24.7-2.6-33.5-10.8-21.3-19.7-14.2-54.5 13.2-64.3 6.3-2.3 24.2-2.7 42.8-.9z"/></svg>